HIERARCHY
ROOT Hips
{
	OFFSET 0.00000 0.00000 0.00000
	CHANNELS 6 Xposition Yposition Zposition Zrotation Yrotation Xrotation 
	JOINT LHipJoint
	{
		OFFSET 0 0 0
		CHANNELS 3 Zrotation Yrotation Xrotation
		JOINT LeftUpLeg
		{
			OFFSET 1.92384 -1.64427 0.83032
			CHANNELS 3 Zrotation Yrotation Xrotation
			JOINT LeftLeg
			{
				OFFSET 2.52872 -6.94761 0.00000
				CHANNELS 3 Zrotation Yrotation Xrotation
				JOINT LeftFoot
				{
					OFFSET 2.51827 -6.91890 0.00000
					CHANNELS 3 Zrotation Yrotation Xrotation
					JOINT LeftToeBase
					{
						OFFSET 0.22757 -0.62524 2.06528
						CHANNELS 3 Zrotation Yrotation Xrotation
						End Site
						{
							OFFSET 0.00000 -0.00000 1.08218
						}
					}
				}
			}
		}
	}
	JOINT RHipJoint
	{
		OFFSET 0 0 0
		CHANNELS 3 Zrotation Yrotation Xrotation
		JOINT RightUpLeg
		{
			OFFSET -2.09517 -1.64427 0.83032
			CHANNELS 3 Zrotation Yrotation Xrotation
			JOINT RightLeg
			{
				OFFSET -2.55173 -7.01082 0.00000
				CHANNELS 3 Zrotation Yrotation Xrotation
				JOINT RightFoot
				{
					OFFSET -2.50265 -6.87598 0.00000
					CHANNELS 3 Zrotation Yrotation Xrotation
					JOINT RightToeBase
					{
						OFFSET -0.22612 -0.62126 1.98677
						CHANNELS 3 Zrotation Yrotation Xrotation
						End Site
						{
							OFFSET -0.00000 -0.00000 1.04433
						}
					}
				}
			}
		}
	}
	JOINT LowerBack
	{
		OFFSET 0 0 0
		CHANNELS 3 Zrotation Yrotation Xrotation
		JOINT Spine
		{
			OFFSET 0.02839 1.68926 0.31690
			CHANNELS 3 Zrotation Yrotation Xrotation
			JOINT Spine1
			{
				OFFSET -0.01522 1.70183 0.21192
				CHANNELS 3 Zrotation Yrotation Xrotation
				JOINT Neck
				{
					OFFSET 0 0 0
					CHANNELS 3 Zrotation Yrotation Xrotation
					JOINT Neck1
					{
						OFFSET -0.04523 1.88988 0.10630
						CHANNELS 3 Zrotation Yrotation Xrotation
						JOINT Head
						{
							OFFSET 0.05172 1.78070 -0.56858
							CHANNELS 3 Zrotation Yrotation Xrotation
							End Site
							{
								OFFSET 0.01532 1.90392 -0.20434
							}
						}
					}
				}
				JOINT LeftShoulder
				{
					OFFSET 0 0 0
					CHANNELS 3 Zrotation Yrotation Xrotation
					JOINT LeftArm
					{
						OFFSET 3.25522 0.75486 0.22086
						CHANNELS 3 Zrotation Yrotation Xrotation
						JOINT LeftForeArm
						{
							OFFSET 4.85645 -0.00000 0.00000
							CHANNELS 3 Zrotation Yrotation Xrotation
							JOINT LeftHand
							{
								OFFSET 2.79874 -0.00000 0.00000
								CHANNELS 3 Zrotation Yrotation Xrotation
								JOINT LeftFingerBase
								{
									OFFSET 0 0 0
									CHANNELS 3 Zrotation Yrotation Xrotation
									JOINT LeftHandIndex1
									{
										OFFSET 0.57340 -0.00000 0.00000
										CHANNELS 3 Zrotation Yrotation Xrotation
										End Site
										{
											OFFSET 0.46229 -0.00000 0.00000
										}
									}
								}
								JOINT LThumb
								{
									OFFSET 0 0 0
									CHANNELS 3 Zrotation Yrotation Xrotation
									End Site
									{
										OFFSET 0.46935 -0.00000 0.46935
									}
								}
							}
						}
					}
				}
				JOINT RightShoulder
				{
					OFFSET 0 0 0
					CHANNELS 3 Zrotation Yrotation Xrotation
					JOINT RightArm
					{
						OFFSET -3.29079 0.52751 0.36356
						CHANNELS 3 Zrotation Yrotation Xrotation
						JOINT RightForeArm
						{
							OFFSET -4.67018 -0.00000 0.00000
							CHANNELS 3 Zrotation Yrotation Xrotation
							JOINT RightHand
							{
								OFFSET -2.65534 -0.00000 0.00000
								CHANNELS 3 Zrotation Yrotation Xrotation
								JOINT RightFingerBase
								{
									OFFSET 0 0 0
									CHANNELS 3 Zrotation Yrotation Xrotation
									JOINT RightHandIndex1
									{
										OFFSET -0.59407 -0.00000 0.00000
										CHANNELS 3 Zrotation Yrotation Xrotation
										End Site
										{
											OFFSET -0.47895 -0.00000 0.00000
										}
									}
								}
								JOINT RThumb
								{
									OFFSET 0 0 0
									CHANNELS 3 Zrotation Yrotation Xrotation
									End Site
									{
										OFFSET -0.48627 -0.00000 0.48627
									}
								}
							}
						}
					}
				}
			}
		}
	}
}
MOTION
Frames: 13
Frame Time: .0083333
2.9521 16.9372 42.761 0 0 0 0 0 0 -21 0 0 0 0 0 0 0 0 0 0 0 0 0 0 21 0 0 0 0 0 0 0 0 0 0 0 0 0 0 0 0 0 0 0 0 0 0 -16 0 0 21 0 0 11 0 0 0 -8 0 0 0 0 0 0 0 0 0 0 0 0 0 0 0 0 0 0 0 0 8 0 0 0 0 0 0 0 0 0 0 0 0 0 0 0 0 0
2.9521 16.9372 42.7610 -2.2443 17.4486 28.4067 0.0000 0.0000 0.0000 -12.1806 -13.1745 -36.2342 5.6667 14.0974 43.6290 0.7289 -4.6381 -15.2300 2.5877 -9.9957 -28.9627 0.0000 0.0000 0.0000 16.7510 20.2163 -41.9756 -1.8100 -8.4586 24.1158 -0.1169 -4.0095 -9.1803 -0.0270 -1.0602 2.9144 2.8221 1.5534 -20.5075 -1.6488 1.8102 -14.0005 -3.0573 0.7450 -3.6612 17.0926 15.1938 -5.6952 0.3267 19.0005 23.1287 -0.2994 10.4031 9.9713 -0.0000 -0.0000 0.0000 -77.2546 14.6349 32.9287 22.3379 -33.3568 -6.7707 -0.0000 -0.0000 0.5119 10.0795 24.5367 4.2218 -7.1250 0.0000 -0.0000 -20.1856 53.7014 -4.4598 -0.0000 -0.0000 0.0000 85.0743 -30.3315 21.2549 -23.6669 34.8100 -7.5155 0.0000 0.0000 3.7684 -15.5341 -14.1452 3.8861 7.1250 -0.0000 -0.0000 10.9905 -44.3567 0.1767
2.9324 16.9367 42.8111 -2.4182 17.7795 28.4498 0.0000 0.0000 0.0000 -11.6374 -13.1687 -37.1413 6.0020 14.4303 44.9898 0.6434 -5.0801 -14.2843 2.4543 -9.7543 -28.1847 0.0000 0.0000 0.0000 17.2211 20.0409 -41.8702 -1.7970 -8.4298 24.0274 -0.1246 -3.9510 -9.3010 -0.0299 -1.1155 3.0666 2.9851 1.5848 -20.5153 -1.6250 1.8303 -14.0285 -3.1211 0.7460 -3.6861 17.1652 15.0737 -5.7092 0.2638 18.8375 23.2237 -0.3480 10.3306 10.0094 -0.0000 0.0000 0.0000 -77.5253 14.6827 32.2750 22.4873 -33.5234 -6.8530 -0.0000 -0.0000 0.1088 10.2575 24.6203 4.3114 -7.1250 0.0000 -0.0000 -20.0588 53.8123 -4.4854 -0.0000 0.0000 0.0000 85.2207 -30.1166 20.6971 -23.2786 34.3921 -7.2951 0.0000 0.0000 3.7042 -15.5707 -14.3034 3.9382 7.1250 -0.0000 -0.0000 10.9982 -44.5207 0.1317
2.9124 16.9335 42.8559 -2.5258 18.0300 28.6036 0.0000 0.0000 0.0000 -11.1765 -13.1704 -38.1392 6.3191 14.7306 46.2493 0.5682 -5.4212 -13.4292 2.4025 -9.6584 -27.8774 0.0000 0.0000 0.0000 17.5202 19.9687 -41.9319 -1.7918 -8.4182 23.9915 -0.1303 -3.9145 -9.3956 -0.0295 -1.1091 3.0490 3.0983 1.6546 -20.5652 -1.6552 1.9086 -14.1127 -3.2052 0.7767 -3.7487 17.0658 15.0170 -5.7024 0.3815 18.7509 23.3075 -0.3091 10.2983 10.0082 -0.0000 0.0000 0.0000 -77.7450 14.6449 31.7569 22.5134 -33.5524 -6.8675 -0.0000 0.0000 -0.3183 10.4264 24.7502 4.4053 -7.1250 0.0000 -0.0000 -19.9665 53.9652 -4.5395 -0.0000 0.0000 0.0000 85.3941 -29.9939 20.1514 -22.9087 33.9888 -7.0872 0.0000 0.0000 3.6393 -15.7674 -14.3788 4.0109 7.1250 -0.0000 -0.0000 10.8401 -44.6198 0.1030
2.8951 16.9340 42.9016 -2.5663 18.2666 28.7066 0.0000 0.0000 0.0000 -10.8277 -13.2030 -39.0222 6.6264 15.0090 47.4467 0.5176 -5.5695 -12.8336 2.3529 -9.5655 -27.5808 0.0000 0.0000 0.0000 17.7506 19.8856 -41.8841 -1.7856 -8.4045 23.9497 -0.1366 -3.9309 -9.5496 -0.0319 -1.1521 3.1675 3.1471 1.6970 -20.5128 -1.6844 1.9643 -14.2102 -3.2582 0.7989 -3.8795 17.0904 14.9895 -5.6027 0.3683 18.7381 23.3700 -0.3236 10.2978 10.0161 0.0000 -0.0000 0.0000 -77.9457 14.7856 31.3436 22.6652 -33.7207 -6.9516 -0.0000 0.0000 -0.6224 10.6438 24.5430 4.4637 -7.1250 0.0000 -0.0000 -19.6390 53.8100 -4.3846 0.0000 -0.0000 0.0000 85.4567 -29.8919 19.7817 -22.5315 33.5725 -6.8774 0.0000 0.0000 3.7171 -15.6616 -14.3068 3.9632 7.1250 -0.0000 -0.0000 10.9172 -44.5346 0.1270
2.8776 16.9326 42.9467 -2.6418 18.5109 28.8078 0.0000 0.0000 0.0000 -10.4400 -13.2224 -39.8926 6.9245 15.2680 48.5881 0.4623 -5.6363 -12.1526 2.2923 -9.4501 -27.2137 0.0000 0.0000 0.0000 18.0240 19.8006 -41.8652 -1.7820 -8.3965 23.9251 -0.1437 -3.9261 -9.6972 -0.0329 -1.1713 3.2203 3.2264 1.7389 -20.5018 -1.6994 2.0129 -14.2853 -3.3132 0.8168 -3.9650 17.0878 14.9444 -5.5689 0.3876 18.6836 23.4645 -0.3240 10.2787 10.0376 -0.0000 -0.0000 0.0000 -78.1592 14.8518 30.8875 22.7668 -33.8328 -7.0080 -0.0000 0.0000 -0.9105 10.7933 24.4206 4.5065 -7.1250 0.0000 -0.0000 -19.4257 53.7216 -4.2913 -0.0000 -0.0000 0.0000 85.5119 -29.7580 19.4317 -22.1671 33.1653 -6.6770 0.0000 0.0000 3.7610 -15.6165 -14.3197 3.9548 7.1250 -0.0000 -0.0000 10.9612 -44.5425 0.1253
2.8609 16.9314 42.9907 -2.7035 18.7356 28.9048 0.0000 0.0000 0.0000 -10.0942 -13.2406 -40.7201 7.2033 15.5007 49.6390 0.4201 -5.4967 -11.5927 2.2388 -9.3466 -26.8857 0.0000 0.0000 0.0000 18.2722 19.7261 -41.8363 -1.7777 -8.3869 23.8955 -0.1503 -3.9342 -9.8449 -0.0335 -1.1813 3.2478 3.2914 1.7795 -20.4890 -1.7147 2.0620 -14.3573 -3.3603 0.8358 -4.0480 17.0375 14.9092 -5.6161 0.4740 18.6204 23.6341 -0.2877 10.2588 10.0885 0.0000 0.0000 0.0000 -78.3663 14.9102 30.4678 22.8424 -33.9160 -7.0501 -0.0000 0.0000 -1.1045 10.9088 24.2269 4.5219 -7.1250 0.0000 -0.0000 -19.2080 53.5595 -4.1629 0.0000 0.0000 0.0000 85.5270 -29.6241 19.1523 -21.8153 32.7676 -6.4856 0.0000 0.0000 3.8712 -15.5095 -14.3149 3.9251 7.1250 -0.0000 -0.0000 11.0565 -44.5253 0.1312
2.8455 16.9305 43.0341 -2.7595 18.9492 28.9909 0.0000 0.0000 0.0000 -9.7821 -13.2618 -41.5046 7.4662 15.7122 50.6162 0.3943 -5.1407 -11.2135 2.1857 -9.2425 -26.5570 0.0000 0.0000 0.0000 18.5147 19.6459 -41.7913 -1.7724 -8.3750 23.8589 -0.1569 -3.9419 -9.9896 -0.0339 -1.1887 3.2683 3.3523 1.8182 -20.4792 -1.7274 2.1087 -14.4218 -3.4026 0.8543 -4.1213 17.0003 14.8669 -5.6699 0.5498 18.5469 23.8151 -0.2569 10.2343 10.1466 -0.0000 -0.0000 0.0000 -78.5692 14.9666 30.0789 22.8989 -33.9781 -7.0817 -0.0000 0.0000 -1.1953 10.9912 24.0017 4.5171 -7.1250 0.0000 -0.0000 -19.0074 53.3610 -4.0230 -0.0000 -0.0000 0.0000 85.5033 -29.4872 18.9418 -21.4800 32.3844 -6.3051 0.0000 0.0000 4.0524 -15.3443 -14.3046 3.8786 7.1250 -0.0000 -0.0000 11.2029 -44.4959 0.1412
2.8314 16.9300 43.0770 -2.8148 19.1531 29.0693 0.0000 0.0000 0.0000 -9.5008 -13.2846 -42.2424 7.7054 15.8982 51.4945 0.3823 -4.5766 -11.0085 2.1201 -9.1120 -26.1462 0.0000 0.0000 0.0000 18.7578 19.5570 -41.7332 -1.7653 -8.3590 23.8100 -0.1635 -3.9412 -10.1248 -0.0342 -1.1942 3.2834 3.4160 1.8576 -20.4825 -1.7391 2.1553 -14.4802 -3.4449 0.8726 -4.1811 16.9243 14.8296 -5.7659 0.6829 18.4645 24.0293 -0.1989 10.2085 10.2140 0.0000 -0.0000 0.0000 -78.7638 15.0180 29.7292 22.9297 -34.0118 -7.0989 -0.0000 0.0000 -1.1959 11.0602 23.7853 4.5076 -7.1250 0.0000 -0.0000 -18.8263 53.1681 -3.8920 0.0000 -0.0000 0.0000 85.4484 -29.3517 18.7932 -21.1638 32.0191 -6.1366 0.0000 0.0000 4.2950 -15.1376 -14.2892 3.8200 7.1250 -0.0000 -0.0000 11.3851 -44.4566 0.1548
2.8184 16.9300 43.1190 -2.8684 19.3471 29.1411 0.0000 0.0000 0.0000 -9.2480 -13.3139 -42.9363 7.9180 16.0586 52.2670 0.3811 -3.8421 -10.9776 2.0419 -8.9528 -25.6478 0.0000 0.0000 0.0000 18.9981 19.4629 -41.6619 -1.7558 -8.3378 23.7450 -0.1696 -3.9361 -10.2445 -0.0344 -1.1978 3.2931 3.4827 1.8986 -20.4851 -1.7528 2.2037 -14.5407 -3.4909 0.8914 -4.2433 16.8444 14.7854 -5.8771 0.8421 18.3642 24.2683 -0.1319 10.1774 10.2893 0.0000 -0.0000 0.0000 -78.9468 15.0775 29.4259 22.9465 -34.0302 -7.1083 -0.0000 0.0000 -1.1236 11.1268 23.6139 4.5047 -7.1250 0.0000 -0.0000 -18.6724 53.0171 -3.7881 0.0000 -0.0000 0.0000 85.3777 -29.2277 18.6783 -20.8680 31.6739 -5.9805 0.0000 0.0000 4.5978 -14.9239 -14.2410 3.7513 7.1250 -0.0000 -0.0000 11.5648 -44.3837 0.1784
2.8070 16.9309 43.1612 -2.9198 19.5367 29.2115 0.0000 0.0000 0.0000 -9.0186 -13.3579 -43.5833 8.1006 16.1928 52.9242 0.3857 -2.9865 -11.0842 1.9488 -8.7586 -25.0429 0.0000 0.0000 0.0000 19.2403 19.3508 -41.5800 -1.7438 -8.3107 23.6619 -0.1760 -3.9145 -10.3519 -0.0350 -1.2080 3.3214 3.5554 1.9396 -20.5080 -1.7695 2.2504 -14.6017 -3.5434 0.9088 -4.2961 16.8083 14.7331 -5.9063 0.9657 18.2683 24.4430 -0.0909 10.1484 10.3354 0.0000 -0.0000 0.0000 -79.1184 15.1540 29.1678 22.9577 -34.0425 -7.1146 -0.0000 0.0000 -1.0100 11.2098 23.4923 4.5170 -7.1250 0.0000 -0.0000 -18.5293 52.9160 -3.7107 0.0000 -0.0000 0.0000 85.2959 -29.1160 18.6057 -20.5911 31.3480 -5.8358 0.0000 0.0000 4.9264 -14.7188 -14.1753 3.6808 7.1250 -0.0000 -0.0000 11.7318 -44.2942 0.2073
2.7967 16.9327 43.2028 -2.9640 19.7149 29.2790 0.0000 0.0000 0.0000 -8.8118 -13.4215 -44.1833 8.2506 16.3005 53.4605 0.3912 -2.0642 -11.2803 1.8436 -8.5324 -24.3432 0.0000 0.0000 0.0000 19.4680 19.2413 -41.4856 -1.7296 -8.2786 23.5635 -0.1817 -3.8943 -10.4482 -0.0357 -1.2188 3.3511 3.6239 1.9787 -20.5301 -1.7896 2.2953 -14.6662 -3.5976 0.9253 -4.3532 16.8148 14.6749 -5.8670 1.0585 18.1764 24.5670 -0.0725 10.1217 10.3587 0.0000 0.0000 0.0000 -79.2741 15.2499 29.0146 22.9854 -34.0729 -7.1301 -0.0000 0.0000 -0.9813 11.4322 23.5235 4.6144 -7.1250 0.0000 -0.0000 -18.3293 52.9849 -3.6999 0.0000 0.0000 0.0000 85.2103 -29.0167 18.5669 -20.3338 31.0424 -5.7025 0.0000 0.0000 5.2473 -14.5708 -14.0777 3.6178 7.1250 -0.0000 -0.0000 11.8387 -44.1795 0.2433
2.7872 16.9353 43.2436 -2.9957 19.8810 29.3477 0.0000 0.0000 0.0000 -8.6259 -13.5114 -44.7370 8.3656 16.3817 53.8691 0.3939 -1.1318 -11.5145 1.7322 -8.2844 -23.5812 0.0000 0.0000 0.0000 19.6713 19.1405 -41.3821 -1.7138 -8.2426 23.4533 -0.1868 -3.8860 -10.5400 -0.0362 -1.2288 3.3787 3.6823 2.0152 -20.5538 -1.8140 2.3381 -14.7309 -3.6511 0.9411 -4.4100 16.8636 14.6083 -5.7708 1.1134 18.0849 24.6415 -0.0786 10.0946 10.3621 0.0000 0.0000 0.0000 -79.4192 15.3535 28.9396 23.0217 -34.1125 -7.1504 -0.0000 0.0000 -1.0183 11.7374 23.6387 4.7623 -7.1250 0.0000 -0.0000 -18.0912 53.1488 -3.7230 0.0000 0.0000 0.0000 85.1281 -28.9158 18.5443 -20.0918 30.7528 -5.5782 0.0000 0.0000 5.5496 -14.4869 -13.9674 3.5685 7.1250 -0.0000 -0.0000 11.8848 -44.0594 0.2800
